<svg width="789" height="354" viewBox="0 0 789 354" fill="none" xmlns="http://www.w3.org/2000/svg">
<path d="M354 177C354 274.754 274.754 354 177 354C79.2456 354 0 274.754 0 177C0 79.2456 79.2456 0 177 0C274.754 0 354 79.2456 354 177Z" fill="#FF2C29"/>
<path fill-rule="evenodd" clip-rule="evenodd" d="M157.308 246.893H237.798V218.929H182.526V214.786C195.308 207.018 212.58 193.381 222.944 180.952C231.062 171.286 239.525 157.821 239.525 142.113C239.525 120.363 224.844 105 197.553 105C170.435 105 156.272 118.637 156.272 147.464V160.929H186.671V144.357C186.671 130.72 188.744 120.536 197.898 120.536C207.916 120.536 209.471 131.929 209.471 141.94C209.471 154.542 205.844 163 194.617 174.911C182.353 188.03 170.09 200.113 157.308 212.369V246.893Z" fill="#FCFCFC"/>
<path fill-rule="evenodd" clip-rule="evenodd" d="M257.835 246.893V178.881H247.472V152.988H286.853V246.893H257.835Z" fill="#FCFCFC"/>
<path fill-rule="evenodd" clip-rule="evenodd" d="M271.309 140.214C258.7 140.214 251.619 134 251.619 122.78C251.619 111.214 258.7 105 271.309 105C283.918 105 291 111.214 291 122.78C291 134 283.918 140.214 271.309 140.214Z" fill="#FCFCFC"/>
<path d="M93.0542 250C106.872 250 114.299 243.095 117.754 228.25H121.899L124.145 246.893H145.908V178.881H107.218V203.048H115.854V205.292C115.854 222.036 112.399 229.286 104.281 229.286C96.336 229.286 93.0542 222.036 93.0542 205.292V144.357C93.0542 127.613 96.5087 120.536 104.454 120.536C112.399 120.536 115.854 127.613 115.854 144.357V160.929H145.908V147.119C145.908 118.81 131.572 105 104.454 105C77.5089 105 63 118.119 63 145.738V205.81C63 235.327 73.709 250 93.0542 250Z" fill="#FCFCFC"/>
<path d="M412.995 155.905V96.1646H396V83.8046H443.277V96.1646H426.179V155.905H412.995Z" fill="#1B1A1A"/>
<path d="M447.848 155.905V82.6716H460.723V109.452C462.68 105.332 465.976 101.933 473.289 101.933C482.147 101.933 487.091 106.568 487.091 117.589V155.905H474.216V122.121C474.216 116.353 472.774 113.263 468.345 113.263C462.989 113.263 460.723 118.104 460.723 125.417V155.905H447.848Z" fill="#1B1A1A"/>
<path d="M513.09 157.038C495.683 157.038 493.417 144.369 493.417 130.67C493.417 113.881 496.919 101.933 513.399 101.933C531.012 101.933 532.351 115.735 532.351 125.417V133.554H505.88C506.086 141.794 507.322 145.914 513.09 145.914C517.416 145.914 518.755 143.854 519.064 139.631H531.939C531.012 150.755 525.244 157.038 513.09 157.038ZM506.086 123.563H520.197C520.197 114.808 518.549 112.954 513.502 112.954C508.352 112.954 506.601 116.147 506.086 123.563Z" fill="#1B1A1A"/>
<path d="M557.993 155.905V83.8046H592.807V96.1646H571.177V113.881H591.056V126.241H571.177V155.905H557.993Z" fill="#1B1A1A"/>
<path d="M611.418 157.038C602.56 157.038 597.616 152.403 597.616 141.382V102.86H610.491V137.056C610.491 142.721 611.521 145.914 616.156 145.914C621.306 145.914 623.263 140.867 623.263 133.76V102.86H636.138V155.905H624.087V148.077C622.233 152.918 618.834 157.038 611.418 157.038Z" fill="#1B1A1A"/>
<path d="M660.926 155.905C651.862 155.905 647.33 151.27 647.33 141.794V114.19H640.429V102.86H647.33V90.4996L660.102 86.8946V102.86H668.445V114.19H660.102V139.219C660.102 143.133 661.132 144.678 665.252 144.678H669.578V155.905H660.926Z" fill="#1B1A1A"/>
<path d="M687.867 157.038C679.009 157.038 674.065 152.403 674.065 141.382V102.86H686.94V137.056C686.94 142.721 687.97 145.914 692.605 145.914C697.755 145.914 699.712 140.867 699.712 133.76V102.86H712.587V155.905H700.536V148.077C698.682 152.918 695.283 157.038 687.867 157.038Z" fill="#1B1A1A"/>
<path d="M721.204 155.905V102.86H733.564V111.512C734.697 105.538 738.508 102.242 743.555 102.242H746.645V114.808H743.555C737.478 114.808 734.079 118.928 734.079 126.859V155.905H721.204Z" fill="#1B1A1A"/>
<path d="M768.844 157.038C751.437 157.038 749.171 144.369 749.171 130.67C749.171 113.881 752.673 101.933 769.153 101.933C786.766 101.933 788.105 115.735 788.105 125.417V133.554H761.634C761.84 141.794 763.076 145.914 768.844 145.914C773.17 145.914 774.509 143.854 774.818 139.631H787.693C786.766 150.755 780.998 157.038 768.844 157.038ZM761.84 123.563H775.951C775.951 114.808 774.303 112.954 769.256 112.954C764.106 112.954 762.355 116.147 761.84 123.563Z" fill="#1B1A1A"/>
<path d="M418.351 253.038C402.592 253.038 397.957 242.223 397.957 225.434C397.957 208.851 402.592 197.933 418.351 197.933C434.213 197.933 438.848 208.851 438.848 225.434C438.848 242.223 434.213 253.038 418.351 253.038ZM410.832 225.228C410.832 236.661 412.274 240.987 418.351 240.987C424.531 240.987 425.973 236.661 425.973 225.125C425.973 214.722 424.737 209.984 418.351 209.984C412.171 209.984 410.832 214.619 410.832 225.228Z" fill="#1B1A1A"/>
<path d="M448.009 251.905V210.19H441.108V198.86H448.009V193.607C448.009 182.483 452.335 178.672 461.914 178.672H470.154V189.487H465.416C462.017 189.487 460.884 190.929 460.884 194.328V198.86H469.742V210.19H460.884V251.905H448.009Z" fill="#1B1A1A"/>
<path d="M492.862 251.905V179.805H506.046V209.366H525.925V179.805H539.109V251.905H525.925V221.726H506.046V251.905H492.862Z" fill="#1B1A1A"/>
<path d="M549.901 251.905V198.86H562.776V251.905H549.901ZM549.591 191.444V178.157H562.982V191.444H549.591Z" fill="#1B1A1A"/>
<path d="M571.476 251.905V198.86H583.836V207.512C584.969 201.538 588.78 198.242 593.827 198.242H596.917V210.808H593.827C587.75 210.808 584.351 214.928 584.351 222.859V251.905H571.476Z" fill="#1B1A1A"/>
<path d="M601.606 251.905V198.86H614.481V251.905H601.606ZM601.297 191.444V178.157H614.687V191.444H601.297Z" fill="#1B1A1A"/>
<path d="M623.181 251.905V198.86H635.541V206.173C637.498 201.641 640.897 197.933 648.622 197.933C657.48 197.933 662.424 202.568 662.424 213.589V251.905H649.549V218.121C649.549 212.353 648.107 209.263 643.678 209.263C638.322 209.263 636.056 214.104 636.056 221.417V251.905H623.181Z" fill="#1B1A1A"/>
<path d="M689.968 272.814C676.475 272.814 670.192 265.707 670.192 253.862H682.964C682.964 259.321 684.406 262.72 690.071 262.72C695.324 262.72 697.281 259.63 697.281 252.626V243.974C694.912 248.3 690.483 250.154 685.333 250.154C671.943 250.154 668.75 238.824 668.75 224.301C668.75 209.16 672.252 197.933 684.818 197.933C690.483 197.933 694.912 200.302 697.075 205.761V198.86H709.847V249.433C709.847 265.604 703.255 272.814 689.968 272.814ZM681.625 224.713C681.625 233.571 682.861 239.339 689.247 239.339C695.324 239.339 696.972 233.983 696.972 223.477C696.972 215.546 695.839 209.778 689.35 209.778C683.17 209.778 681.625 214.722 681.625 224.713Z" fill="#1B1A1A"/>
</svg>
