<svg width="450" height="300" viewBox="0 0 450 300" fill="none" xmlns="http://www.w3.org/2000/svg">
  <!-- Long Island outline (stylized) -->
  <g opacity="0.2">
    <path d="M 50 200 Q 80 180 120 185 Q 160 190 200 175 Q 240 160 280 170 Q 320 180 360 165 Q 400 150 420 155 L 425 165 Q 415 175 390 180 Q 365 185 340 190 Q 315 195 290 200 Q 265 205 240 210 L 220 240 Q 200 250 180 245 Q 160 240 140 235 L 120 220 Q 100 215 80 220 L 60 210 Z" fill="#CBD5E1" stroke="#94A3B8" stroke-width="2"/>
    <!-- Small islands -->
    <ellipse cx="420" cy="140" rx="15" ry="8" fill="#CBD5E1" stroke="#94A3B8" stroke-width="1"/>
    <ellipse cx="380" cy="200" rx="12" ry="7" fill="#CBD5E1" stroke="#94A3B8" stroke-width="1"/>
  </g>

  <!-- Text -->
  <text x="75" y="165" font-family="Arial, Helvetica, sans-serif" font-size="52" font-weight="900" fill="#1a1a1a">
    LONG
  </text>
  <text x="240" y="165" font-family="Arial, Helvetica, sans-serif" font-size="52" font-weight="300" fill="#1a1a1a">
    ISLAND
  </text>

  <text x="80" y="200" font-family="Arial, Helvetica, sans-serif" font-size="20" font-weight="400" letter-spacing="8" fill="#4a4a4a">
    TECHNOLOGISTS
  </text>
</svg>
